<svg width="70" height="40" viewBox="0 0 70 40" fill="none" xmlns="http://www.w3.org/2000/svg">
<path d="M37.2525 1.61647C38.1777 0.653994 39.4342 0.113281 40.7426 0.113281C46.6292 0.113281 52.1767 0.113284 57.6398 0.113295C68.6276 0.113318 74.1298 13.9335 66.3603 22.0162L49.4363 39.6223C48.6594 40.4306 47.3309 39.8581 47.3309 38.715V23.2082L49.2867 21.1735C50.8406 19.557 49.7401 16.7929 47.5425 16.7929H22.6641L37.2525 1.61647Z" fill="#3A04FF"/>
<path d="M32.7449 38.3842C31.8198 39.3467 30.5633 39.8874 29.2549 39.8874C23.3683 39.8874 17.8208 39.8874 12.3577 39.8874C1.36983 39.8873 -4.13236 26.0672 3.63721 17.9844L20.5612 0.378369C21.3381 -0.429908 22.6666 0.142547 22.6666 1.28562L22.6667 16.7923L20.7108 18.8271C19.1569 20.4437 20.2574 23.2077 22.455 23.2077L47.3335 23.2076L32.7449 38.3842Z" fill="#3A04FF"/>
</svg>
