<svg width="267" height="42" viewBox="0 0 267 42" fill="none" xmlns="http://www.w3.org/2000/svg">
<g clip-path="url(#clip0_843_2360)">
<path d="M37.2525 1.61647C38.1777 0.653994 39.4342 0.113281 40.7426 0.113281C46.6292 0.113281 52.1767 0.113284 57.6398 0.113295C68.6276 0.113318 74.1298 13.9335 66.3603 22.0162L49.4363 39.6223C48.6594 40.4306 47.3309 39.8581 47.3309 38.715V23.2082L49.2867 21.1735C50.8406 19.557 49.7401 16.7929 47.5425 16.7929H22.6641L37.2525 1.61647Z" fill="#5A45FF"/>
<path d="M32.7449 38.3842C31.8198 39.3467 30.5633 39.8874 29.2549 39.8874C23.3683 39.8874 17.8208 39.8874 12.3577 39.8874C1.36983 39.8873 -4.13236 26.0672 3.63721 17.9844L20.5612 0.378369C21.3381 -0.429908 22.6666 0.142547 22.6666 1.28562L22.6667 16.7923L20.7108 18.8271C19.1569 20.4437 20.2574 23.2077 22.455 23.2077L47.3335 23.2076L32.7449 38.3842Z" fill="#5A45FF"/>
<path d="M168.148 13.4414V33.4362H174.02V13.4414H168.148Z" fill="white"/>
<path d="M168.557 10.1137C169.251 10.8074 170.099 11.1543 171.103 11.1543C172.106 11.1543 172.949 10.8074 173.63 10.1137C174.324 9.41992 174.671 8.57751 174.671 7.58644C174.671 6.57059 174.324 5.72198 173.63 5.04063C172.949 4.34688 172.106 4 171.103 4C170.099 4 169.251 4.34688 168.557 5.04063C167.863 5.72198 167.516 6.57059 167.516 7.58644C167.516 8.57751 167.863 9.41992 168.557 10.1137Z" fill="white"/>
<path fill-rule="evenodd" clip-rule="evenodd" d="M177.336 41.2395V13.44H182.911V15.4283H182.984C183.335 15.0823 183.713 14.7664 184.119 14.4806C185.432 13.5638 186.943 13.1055 188.653 13.1055C190.152 13.1055 191.583 13.4957 192.946 14.2762C194.321 15.0566 195.436 16.215 196.291 17.7511C197.145 19.2873 197.56 21.2013 197.536 23.4931C197.548 25.2275 197.306 26.7389 196.811 28.0273C196.315 29.3033 195.646 30.3625 194.804 31.2049C193.962 32.0473 193.02 32.6791 191.979 33.1003C190.939 33.5215 189.886 33.7321 188.82 33.7321C187.135 33.7321 185.624 33.2614 184.286 32.3199C183.949 32.0797 183.63 31.8196 183.329 31.5394H183.208V41.2395H177.336ZM187.445 28.8263C188.312 28.8139 189.074 28.5848 189.731 28.1388C190.387 27.6928 190.902 27.061 191.273 26.2434C191.645 25.4257 191.825 24.4718 191.812 23.3816C191.825 22.2667 191.639 21.3128 191.255 20.5199C190.883 19.7147 190.357 19.1014 189.675 18.6802C188.994 18.2467 188.213 18.036 187.334 18.0484C186.504 18.036 185.76 18.2405 185.104 18.6617C184.447 19.0829 183.927 19.6961 183.543 20.5013C183.159 21.2942 182.967 22.2543 182.967 23.3816C182.967 24.4718 183.159 25.4257 183.543 26.2434C183.939 27.061 184.472 27.6928 185.141 28.1388C185.81 28.5848 186.578 28.8139 187.445 28.8263Z" fill="white"/>
<path d="M203.192 33.1208C204.282 33.5296 205.422 33.734 206.611 33.734C207.974 33.734 209.219 33.4677 210.346 32.935C211.486 32.4023 212.396 31.659 213.078 30.7051C213.772 29.7388 214.118 28.63 214.118 27.3788C214.118 26.3877 213.908 25.5515 213.487 24.8702C213.078 24.1888 212.557 23.6313 211.926 23.1977C211.306 22.7641 210.668 22.4234 210.012 22.1757C209.355 21.9155 208.779 21.7173 208.283 21.581C207.639 21.3952 207.02 21.2032 206.425 21.005C205.831 20.8068 205.341 20.5714 204.957 20.2988C204.573 20.0263 204.381 19.667 204.381 19.221C204.381 18.7751 204.573 18.4034 204.957 18.1061C205.341 17.8088 205.824 17.6601 206.407 17.6601C207.1 17.6601 207.67 17.8459 208.116 18.2176C208.575 18.5892 208.921 18.9733 209.157 19.3697L213.672 17.4185C213.103 16.1301 212.136 15.0957 210.774 14.3152C209.423 13.5348 207.899 13.1445 206.202 13.1445C204.84 13.1445 203.625 13.3985 202.56 13.9064C201.507 14.4143 200.671 15.1205 200.051 16.0248C199.444 16.9168 199.141 17.9512 199.141 19.1281C199.141 20.2431 199.401 21.1908 199.921 21.9713C200.442 22.7517 201.117 23.3959 201.947 23.9039C202.789 24.3994 203.681 24.7896 204.623 25.0746C205.032 25.1861 205.478 25.3099 205.961 25.4462C206.456 25.5825 206.927 25.7435 207.373 25.9294C207.819 26.1152 208.184 26.3382 208.469 26.5983C208.754 26.8585 208.897 27.1682 208.897 27.5275C208.897 27.8124 208.798 28.0787 208.599 28.3265C208.414 28.5743 208.153 28.7787 207.819 28.9397C207.484 29.0884 207.094 29.1627 206.648 29.1627C205.806 29.1627 205.075 28.9026 204.455 28.3823C203.836 27.8619 203.372 27.3107 203.062 26.7284L198.453 28.7539C198.874 29.7574 199.5 30.6369 200.33 31.3926C201.16 32.1359 202.114 32.712 203.192 33.1208Z" fill="white"/>
<path d="M237.984 33.4367V13.4419H243.577V15.9877H243.679C244.117 15.3794 244.609 14.8653 245.157 14.4453C246.272 13.5781 247.591 13.1445 249.115 13.1445C250.378 13.1445 251.45 13.4542 252.33 14.0737C253.008 14.5354 253.561 15.1548 253.989 15.9319H254.094C254.727 15.1249 255.496 14.493 256.399 14.0365C257.576 13.4419 258.858 13.1445 260.246 13.1445C261.571 13.1445 262.662 13.3799 263.516 13.8507C264.371 14.309 265.04 14.9161 265.523 15.6718C266.006 16.4151 266.347 17.2327 266.545 18.1247C266.744 19.0042 266.843 19.859 266.843 20.6891V33.4367H260.933V21.4138C260.933 20.3236 260.704 19.4874 260.246 18.9051C259.8 18.3105 259.143 18.0132 258.276 18.0132C257.706 18.0132 257.198 18.1433 256.752 18.4034C256.319 18.6512 255.972 19.029 255.712 19.5369C255.464 20.0449 255.34 20.6705 255.34 21.4138V33.4367H249.468V21.4138C249.468 20.3236 249.239 19.4874 248.78 18.9051C248.322 18.3105 247.659 18.0132 246.792 18.0132C245.95 18.0132 245.25 18.3043 244.692 18.8866C244.135 19.4564 243.856 20.3112 243.856 21.451V33.4367H237.984Z" fill="white"/>
<path d="M223.62 33.7335C222.245 33.7335 220.994 33.4424 219.867 32.8602C218.739 32.2655 217.842 31.3983 217.173 30.2586C216.517 29.1065 216.188 27.688 216.188 26.0032V13.4414H222.059V25.2227C222.059 26.3748 222.357 27.2544 222.951 27.8614C223.558 28.4561 224.296 28.7534 225.163 28.7534C225.807 28.7534 226.371 28.6109 226.854 28.326C227.349 28.0411 227.734 27.6385 228.007 27.1181C228.292 26.5854 228.433 25.9536 228.433 25.2227V13.4414H234.305V26.4306C234.305 27.1491 234.411 27.6694 234.621 27.9915C234.832 28.3136 235.259 28.5924 235.903 28.8277L233.822 33.7335C232.348 33.3495 231.27 32.8478 230.589 32.2284C230.246 31.9163 229.986 31.557 229.809 31.1506H229.66C229.141 31.6722 228.565 32.1368 227.932 32.5443C226.68 33.3371 225.243 33.7335 223.62 33.7335Z" fill="white"/>
<path fill-rule="evenodd" clip-rule="evenodd" d="M155.433 33.734C153.512 33.734 151.759 33.2943 150.174 32.4147C148.6 31.5351 147.343 30.321 146.401 28.7725C145.472 27.2239 145.008 25.44 145.008 23.4207C145.008 21.4014 145.472 19.6175 146.401 18.0689C147.343 16.5204 148.6 15.3125 150.174 14.4453C151.759 13.5781 153.512 13.1445 155.433 13.1445C157.39 13.1445 159.155 13.5781 160.729 14.4453C162.302 15.3125 163.547 16.5204 164.464 18.0689C165.393 19.6175 165.857 21.4014 165.857 23.4207C165.857 25.44 165.393 27.2239 164.464 28.7725C163.547 30.321 162.296 31.5351 160.71 32.4147C159.137 33.2943 157.378 33.734 155.433 33.734ZM155.433 28.7167C156.349 28.7167 157.173 28.4938 157.904 28.0478C158.635 27.6018 159.211 26.9824 159.632 26.1895C160.053 25.3967 160.264 24.4737 160.264 23.4207C160.264 22.4049 160.06 21.5005 159.651 20.7076C159.242 19.9148 158.678 19.2954 157.96 18.8494C157.241 18.391 156.411 18.1618 155.47 18.1618C154.541 18.1618 153.704 18.3848 152.961 18.8308C152.23 19.2644 151.654 19.8776 151.233 20.6705C150.812 21.4633 150.601 22.3801 150.601 23.4207C150.601 24.4737 150.812 25.3967 151.233 26.1895C151.666 26.9824 152.249 27.6018 152.98 28.0478C153.711 28.4938 154.528 28.7167 155.433 28.7167Z" fill="white"/>
<path fill-rule="evenodd" clip-rule="evenodd" d="M127.628 40.9245C129.015 41.3333 130.539 41.5377 132.199 41.5377C133.748 41.5377 135.166 41.3395 136.455 40.9431C137.743 40.5591 138.858 39.9768 139.799 39.1963C140.753 38.4159 141.49 37.4496 142.011 36.2974C142.531 35.1453 142.791 33.8074 142.791 32.2836V13.4223H137.458V15.3734H137.347C136.992 15.0337 136.608 14.724 136.194 14.4443C134.906 13.5647 133.401 13.125 131.679 13.125C130.192 13.125 128.761 13.5028 127.386 14.2585C126.011 15.0018 124.884 16.1168 124.004 17.6034C123.137 19.0776 122.703 20.9296 122.703 23.1596C122.703 24.832 122.957 26.2876 123.465 27.5265C123.973 28.7653 124.648 29.7997 125.491 30.6298C126.346 31.4474 127.293 32.0606 128.334 32.4694C129.375 32.8659 130.421 33.0641 131.474 33.0641C133.172 33.0641 134.683 32.5995 136.009 31.6704C136.428 31.3725 136.82 31.0442 137.183 30.6855H137.272V32.6181C137.272 33.572 136.963 34.3401 136.343 34.9223C135.724 35.517 134.974 35.9506 134.095 36.2231C133.215 36.4957 132.366 36.6319 131.549 36.6319C130.595 36.6319 129.653 36.4771 128.724 36.1674C127.807 35.87 127.002 35.5108 126.309 35.0896L124.376 39.6981C125.169 40.1193 126.253 40.5281 127.628 40.9245ZM135.284 27.6194C134.603 28.0654 133.816 28.2883 132.924 28.2883C132.044 28.2883 131.27 28.0654 130.601 27.6194C129.932 27.161 129.406 26.5354 129.022 25.7425C128.638 24.9373 128.445 24.0144 128.445 22.9737C128.445 21.9331 128.638 21.0287 129.022 20.2607C129.418 19.4926 129.963 18.9041 130.657 18.4953C131.351 18.0741 132.137 17.8635 133.017 17.8635C133.896 17.8635 134.671 18.0679 135.34 18.4767C136.009 18.8856 136.535 19.474 136.919 20.2421C137.303 20.9978 137.495 21.9083 137.495 22.9737C137.495 24.0267 137.297 24.9559 136.901 25.7611C136.504 26.554 135.965 27.1734 135.284 27.6194Z" fill="white"/>
<path fill-rule="evenodd" clip-rule="evenodd" d="M110.792 33.734C108.872 33.734 107.119 33.2943 105.533 32.4147C103.96 31.5351 102.702 30.321 101.761 28.7725C100.832 27.2239 100.367 25.44 100.367 23.4207C100.367 21.4014 100.832 19.6175 101.761 18.0689C102.702 16.5204 103.96 15.3125 105.533 14.4453C107.119 13.5781 108.872 13.1445 110.792 13.1445C112.749 13.1445 114.515 13.5781 116.088 14.4453C117.661 15.3125 118.906 16.5204 119.823 18.0689C120.752 19.6175 121.217 21.4014 121.217 23.4207C121.217 25.44 120.752 27.2239 119.823 28.7725C118.906 30.321 117.655 31.5351 116.069 32.4147C114.496 33.2943 112.737 33.734 110.792 33.734ZM110.792 28.7167C111.709 28.7167 112.532 28.4938 113.263 28.0478C113.994 27.6018 114.57 26.9824 114.992 26.1895C115.413 25.3967 115.623 24.4737 115.623 23.4207C115.623 22.4049 115.419 21.5005 115.01 20.7076C114.601 19.9148 114.038 19.2954 113.319 18.8494C112.601 18.391 111.77 18.1618 110.829 18.1618C109.9 18.1618 109.064 18.3848 108.32 18.8308C107.589 19.2644 107.013 19.8776 106.592 20.6705C106.171 21.4633 105.96 22.3801 105.96 23.4207C105.96 24.4737 106.171 25.3967 106.592 26.1895C107.026 26.9824 107.608 27.6018 108.339 28.0478C109.07 28.4938 109.887 28.7167 110.792 28.7167Z" fill="white"/>
<path d="M84.4922 6.04297V33.4337H100.455V28.0076H90.5873V6.04297H84.4922Z" fill="white"/>
</g>
<defs>
<clipPath id="clip0_843_2360">
<rect width="267" height="42" fill="white"/>
</clipPath>
</defs>
</svg>
