<svg width="1200" height="1200" viewBox="0 0 1200 1200" fill="none" xmlns="http://www.w3.org/2000/svg">
<g clip-path="url(#clip0_841_2330)">
<path d="M1200 0H0V1200H1200V0Z" fill="#0D0618"/>
<path opacity="0.15" d="M12 612C122.457 612 212 522.457 212 412C212 301.543 122.457 212 12 212C-98.4569 212 -188 301.543 -188 412C-188 522.457 -98.4569 612 12 612Z" fill="#5A45FF"/>
<path opacity="0.15" d="M897 102C1060.48 102 1193 -30.5237 1193 -194C1193 -357.476 1060.48 -490 897 -490C733.524 -490 601 -357.476 601 -194C601 -30.5237 733.524 102 897 102Z" fill="#5A45FF"/>
<path opacity="0.1" d="M900 1150C1038.07 1150 1150 1038.07 1150 900C1150 761.929 1038.07 650 900 650C761.929 650 650 761.929 650 900C650 1038.07 761.929 1150 900 1150Z" fill="#00C9B7"/>
<path opacity="0.08" d="M600 750C682.843 750 750 682.843 750 600C750 517.157 682.843 450 600 450C517.157 450 450 517.157 450 600C450 682.843 517.157 750 600 750Z" fill="#5A45FF"/>
<path opacity="0.6" d="M280 152C286.627 152 292 146.627 292 140C292 133.373 286.627 128 280 128C273.373 128 268 133.373 268 140C268 146.627 273.373 152 280 152Z" fill="#5A45FF"/>
<path opacity="0.8" d="M1000 310C1005.52 310 1010 305.523 1010 300C1010 294.477 1005.52 290 1000 290C994.477 290 990 294.477 990 300C990 305.523 994.477 310 1000 310Z" fill="#00C9B7"/>
<path opacity="0.4" d="M150 1008C154.418 1008 158 1004.42 158 1000C158 995.582 154.418 992 150 992C145.582 992 142 995.582 142 1000C142 1004.42 145.582 1008 150 1008Z" fill="#5A45FF"/>
<path opacity="0.6" d="M1050 1056C1053.31 1056 1056 1053.31 1056 1050C1056 1046.69 1053.31 1044 1050 1044C1046.69 1044 1044 1046.69 1044 1050C1044 1053.31 1046.69 1056 1050 1056Z" fill="#00C9B7"/>
<path d="M597 1069H523C521.343 1069 520 1070.34 520 1072C520 1073.66 521.343 1075 523 1075H597C598.657 1075 600 1073.66 600 1072C600 1070.34 598.657 1069 597 1069Z" fill="#5A45FF"/>
<path d="M677 1069H623C621.343 1069 620 1070.34 620 1072C620 1073.66 621.343 1075 623 1075H677C678.657 1075 680 1073.66 680 1072C680 1070.34 678.657 1069 677 1069Z" fill="#00C9B7"/>
<path d="M78.51 890C78.51 861.552 78.51 832.765 78.51 803.64C78.51 774.515 78.51 745.728 78.51 717.28C89.0087 717.28 99.5073 717.28 110.006 717.28C120.674 717.28 131.173 717.28 141.502 717.28C153.186 717.28 163.431 719.397 172.236 723.63C181.041 727.694 187.899 733.451 192.81 740.902C197.721 748.183 200.176 756.819 200.176 766.81C200.176 773.922 198.821 780.357 196.112 786.114C193.403 791.871 189.339 796.697 183.92 800.592C191.032 804.825 196.451 810.329 200.176 817.102C203.901 823.706 205.764 831.072 205.764 839.2C205.764 849.36 203.139 858.25 197.89 865.87C192.81 873.49 185.613 879.417 176.3 883.65C167.156 887.883 156.403 890 144.042 890C133.205 890 122.283 890 111.276 890C100.269 890 89.3473 890 78.51 890ZM155.726 771.128C155.726 766.725 154.371 763.169 151.662 760.46C148.953 757.581 145.397 756.142 140.994 756.142C137.946 756.142 134.813 756.142 131.596 756.142C128.548 756.142 125.5 756.142 122.452 756.142C122.452 760.883 122.452 765.794 122.452 770.874C122.452 775.785 122.452 780.695 122.452 785.606C125.5 785.606 128.548 785.606 131.596 785.606C134.813 785.606 137.946 785.606 140.994 785.606C145.397 785.606 148.953 784.336 151.662 781.796C154.371 779.087 155.726 775.531 155.726 771.128ZM161.314 835.136C161.314 830.395 159.705 826.669 156.488 823.96C153.44 821.081 149.207 819.642 143.788 819.642C140.232 819.642 136.676 819.642 133.12 819.642C129.564 819.642 126.008 819.642 122.452 819.642C122.452 824.891 122.452 830.141 122.452 835.39C122.452 840.639 122.452 845.889 122.452 851.138C126.008 851.138 129.564 851.138 133.12 851.138C136.676 851.138 140.232 851.138 143.788 851.138C149.207 851.138 153.44 849.699 156.488 846.82C159.705 843.941 161.314 840.047 161.314 835.136ZM337.261 758.682C337.261 780.357 337.261 802.285 337.261 824.468C337.261 846.481 337.261 868.325 337.261 890C330.487 890 323.545 890 316.433 890C309.321 890 302.293 890 295.351 890C295.351 888.815 295.351 887.714 295.351 886.698C295.351 885.682 295.351 884.581 295.351 883.396C290.779 886.613 285.614 889.069 279.857 890.762C274.269 892.625 268.173 893.556 261.569 893.556C251.917 893.556 243.365 891.355 235.915 886.952C228.633 882.549 222.876 876.199 218.643 867.902C214.579 859.605 212.547 849.783 212.547 838.438C212.547 825.23 212.547 811.937 212.547 798.56C212.547 785.183 212.547 771.89 212.547 758.682C219.489 758.682 226.517 758.682 233.629 758.682C240.741 758.682 247.683 758.682 254.457 758.682C254.457 770.874 254.457 783.235 254.457 795.766C254.457 808.297 254.457 820.658 254.457 832.85C254.457 839.623 255.981 845.127 259.029 849.36C262.246 853.424 267.241 855.456 274.015 855.456C280.788 855.456 286.037 853.509 289.763 849.614C293.488 845.719 295.351 840.131 295.351 832.85C295.351 820.658 295.351 808.297 295.351 795.766C295.351 783.235 295.351 770.874 295.351 758.682C302.293 758.682 309.321 758.682 316.433 758.682C323.545 758.682 330.487 758.682 337.261 758.682ZM374.795 743.696C369.884 743.696 365.397 742.511 361.333 740.14C357.438 737.769 354.306 734.637 351.935 730.742C349.564 726.847 348.379 722.529 348.379 717.788C348.379 713.047 349.564 708.813 351.935 705.088C354.306 701.193 357.438 698.061 361.333 695.69C365.397 693.319 369.884 692.134 374.795 692.134C379.536 692.134 383.854 693.319 387.749 695.69C391.813 698.061 395.03 701.193 397.401 705.088C399.772 708.813 400.957 713.047 400.957 717.788C400.957 722.529 399.772 726.847 397.401 730.742C395.03 734.637 391.813 737.769 387.749 740.14C383.854 742.511 379.536 743.696 374.795 743.696ZM353.713 890C353.713 868.325 353.713 846.481 353.713 824.468C353.713 802.285 353.713 780.357 353.713 758.682C360.656 758.682 367.683 758.682 374.795 758.682C381.907 758.682 388.85 758.682 395.623 758.682C395.623 780.357 395.623 802.285 395.623 824.468C395.623 846.481 395.623 868.325 395.623 890C388.85 890 381.907 890 374.795 890C367.683 890 360.656 890 353.713 890ZM413.443 890C413.443 859.351 413.443 828.447 413.443 797.29C413.443 766.133 413.443 735.229 413.443 704.58C420.385 704.58 427.413 704.58 434.525 704.58C441.637 704.58 448.579 704.58 455.353 704.58C455.353 735.229 455.353 766.133 455.353 797.29C455.353 828.447 455.353 859.351 455.353 890C448.579 890 441.637 890 434.525 890C427.413 890 420.385 890 413.443 890ZM485.618 890C485.618 874.421 485.618 858.758 485.618 843.01C485.618 827.262 485.618 811.683 485.618 796.274C482.232 796.274 478.76 796.274 475.204 796.274C471.818 796.274 468.431 796.274 465.044 796.274C465.044 790.009 465.044 783.743 465.044 777.478C465.044 771.213 465.044 764.947 465.044 758.682C468.431 758.682 471.818 758.682 475.204 758.682C478.76 758.682 482.232 758.682 485.618 758.682C485.618 752.755 485.618 746.913 485.618 741.156C485.618 735.229 485.618 729.387 485.618 723.63C492.561 723.63 499.588 723.63 506.7 723.63C513.812 723.63 520.755 723.63 527.528 723.63C527.528 729.387 527.528 735.229 527.528 741.156C527.528 746.913 527.528 752.755 527.528 758.682C531.423 758.682 535.402 758.682 539.466 758.682C543.53 758.682 547.51 758.682 551.404 758.682C551.404 764.947 551.404 771.213 551.404 777.478C551.404 783.743 551.404 790.009 551.404 796.274C547.51 796.274 543.53 796.274 539.466 796.274C535.402 796.274 531.423 796.274 527.528 796.274C527.528 811.683 527.528 827.262 527.528 843.01C527.528 858.758 527.528 874.421 527.528 890C520.755 890 513.812 890 506.7 890C499.588 890 492.561 890 485.618 890ZM583.809 743.696C578.899 743.696 574.411 742.511 570.347 740.14C566.453 737.769 563.32 734.637 560.949 730.742C558.579 726.847 557.393 722.529 557.393 717.788C557.393 713.047 558.579 708.813 560.949 705.088C563.32 701.193 566.453 698.061 570.347 695.69C574.411 693.319 578.899 692.134 583.809 692.134C588.551 692.134 592.869 693.319 596.763 695.69C600.827 698.061 604.045 701.193 606.415 705.088C608.786 708.813 609.971 713.047 609.971 717.788C609.971 722.529 608.786 726.847 606.415 730.742C604.045 734.637 600.827 737.769 596.763 740.14C592.869 742.511 588.551 743.696 583.809 743.696ZM562.727 890C562.727 868.325 562.727 846.481 562.727 824.468C562.727 802.285 562.727 780.357 562.727 758.682C569.67 758.682 576.697 758.682 583.809 758.682C590.921 758.682 597.864 758.682 604.637 758.682C604.637 780.357 604.637 802.285 604.637 824.468C604.637 846.481 604.637 868.325 604.637 890C597.864 890 590.921 890 583.809 890C576.697 890 569.67 890 562.727 890ZM634.903 890C634.903 874.421 634.903 858.758 634.903 843.01C634.903 827.262 634.903 811.683 634.903 796.274C631.516 796.274 628.045 796.274 624.489 796.274C621.102 796.274 617.716 796.274 614.329 796.274C614.329 790.009 614.329 783.743 614.329 777.478C614.329 771.213 614.329 764.947 614.329 758.682C617.716 758.682 621.102 758.682 624.489 758.682C628.045 758.682 631.516 758.682 634.903 758.682C634.903 752.755 634.903 746.913 634.903 741.156C634.903 735.229 634.903 729.387 634.903 723.63C641.846 723.63 648.873 723.63 655.985 723.63C663.097 723.63 670.04 723.63 676.813 723.63C676.813 729.387 676.813 735.229 676.813 741.156C676.813 746.913 676.813 752.755 676.813 758.682C680.708 758.682 684.687 758.682 688.751 758.682C692.815 758.682 696.794 758.682 700.689 758.682C700.689 764.947 700.689 771.213 700.689 777.478C700.689 783.743 700.689 790.009 700.689 796.274C696.794 796.274 692.815 796.274 688.751 796.274C684.687 796.274 680.708 796.274 676.813 796.274C676.813 811.683 676.813 827.262 676.813 843.01C676.813 858.758 676.813 874.421 676.813 890C670.04 890 663.097 890 655.985 890C648.873 890 641.846 890 634.903 890ZM718.665 894.064C713.755 894.064 709.183 892.879 704.949 890.508C700.885 888.137 697.668 884.92 695.297 880.856C692.927 876.792 691.741 872.389 691.741 867.648C691.741 862.907 692.927 858.589 695.297 854.694C697.668 850.63 700.885 847.413 704.949 845.042C709.183 842.671 713.755 841.486 718.665 841.486C723.576 841.486 727.979 842.671 731.873 845.042C735.937 847.413 739.155 850.63 741.525 854.694C744.065 858.589 745.335 862.907 745.335 867.648C745.335 872.389 744.065 876.792 741.525 880.856C739.155 884.92 735.937 888.137 731.873 890.508C727.979 892.879 723.576 894.064 718.665 894.064ZM839.438 890C839.438 888.645 839.438 887.375 839.438 886.19C839.438 884.835 839.438 883.565 839.438 882.38C835.205 885.936 830.379 888.645 824.96 890.508C819.711 892.54 814.038 893.556 807.942 893.556C799.306 893.556 791.178 891.863 783.558 888.476C775.938 885.089 769.165 880.348 763.238 874.252C757.481 867.987 752.909 860.621 749.522 852.154C746.305 843.687 744.696 834.374 744.696 824.214C744.696 813.885 746.305 804.487 749.522 796.02C752.909 787.553 757.481 780.272 763.238 774.176C769.165 768.08 775.938 763.423 783.558 760.206C791.178 756.819 799.222 755.126 807.688 755.126C813.784 755.126 819.542 756.142 824.96 758.174C830.379 760.037 835.205 762.661 839.438 766.048C839.438 755.888 839.438 745.643 839.438 735.314C839.438 724.985 839.438 714.74 839.438 704.58C846.381 704.58 853.408 704.58 860.52 704.58C867.632 704.58 874.575 704.58 881.348 704.58C881.348 735.229 881.348 766.133 881.348 797.29C881.348 828.447 881.348 859.351 881.348 890C874.575 890 867.632 890 860.52 890C853.408 890 846.381 890 839.438 890ZM813.53 856.472C821.658 856.472 828.178 853.509 833.088 847.582C837.999 841.655 840.454 833.866 840.454 824.214C840.454 814.562 837.999 806.857 833.088 801.1C828.178 795.173 821.658 792.21 813.53 792.21C805.233 792.21 798.629 795.089 793.718 800.846C788.977 806.603 786.606 814.393 786.606 824.214C786.606 834.035 788.977 841.909 793.718 847.836C798.629 853.593 805.233 856.472 813.53 856.472ZM1010.89 883.904C999.204 888.815 987.605 891.863 976.09 893.048C964.576 894.233 953.654 893.556 943.324 891.016C933.164 888.645 924.105 884.497 916.146 878.57C908.188 872.643 901.922 865.108 897.35 855.964C892.948 846.82 890.746 836.237 890.746 824.214C890.746 814.223 892.355 805.079 895.572 796.782C898.959 788.315 903.7 780.949 909.796 774.684C915.892 768.249 923.089 763.339 931.386 759.952C939.684 756.396 948.743 754.618 958.564 754.618C967.37 754.618 975.328 756.057 982.44 758.936C989.552 761.815 995.733 765.879 1000.98 771.128C1006.23 776.208 1010.47 782.304 1013.68 789.416C1016.9 796.528 1018.93 804.317 1019.78 812.784C1020.63 821.251 1020.12 830.225 1018.25 839.708C1004.37 839.708 990.399 839.708 976.344 839.708C962.29 839.708 948.32 839.708 934.434 839.708C937.652 846.143 942.986 850.715 950.436 853.424C958.056 856.133 967.031 856.98 977.36 855.964C987.859 854.948 999.035 852.239 1010.89 847.836C1010.89 853.763 1010.89 859.774 1010.89 865.87C1010.89 871.966 1010.89 877.977 1010.89 883.904ZM957.548 792.21C952.638 792.21 948.066 793.565 943.832 796.274C939.768 798.983 936.636 803.132 934.434 808.72C942.054 808.72 949.674 808.72 957.294 808.72C965.084 808.72 972.788 808.72 980.408 808.72C978.376 802.963 975.328 798.814 971.264 796.274C967.37 793.565 962.798 792.21 957.548 792.21ZM1057.02 890C1049.57 868.325 1041.95 846.481 1034.16 824.468C1026.54 802.285 1019 780.357 1011.55 758.682C1018.83 758.682 1026.12 758.682 1033.4 758.682C1040.85 758.682 1048.21 758.682 1055.5 758.682C1059.9 772.059 1064.3 785.521 1068.7 799.068C1073.28 812.445 1077.68 825.823 1081.91 839.2C1086.31 825.823 1090.72 812.445 1095.12 799.068C1099.52 785.521 1103.84 772.059 1108.07 758.682C1115.19 758.682 1122.38 758.682 1129.66 758.682C1136.94 758.682 1144.14 758.682 1151.25 758.682C1143.8 780.357 1136.18 802.285 1128.39 824.468C1120.77 846.481 1113.24 868.325 1105.79 890C1097.83 890 1089.7 890 1081.4 890C1073.11 890 1064.98 890 1057.02 890Z" fill="white"/>
<g filter="url(#filter0_d_841_2330)">
<path d="M629.92 114C690.288 114 739.226 162.748 739.226 222.882C739.226 266.872 713.036 304.768 675.342 321.945C722.694 336.944 757 381.099 757 433.237C757 497.724 704.52 550 639.783 550H443V114H629.92Z" fill="#5A45FF"/>
</g>
</g>
<defs>
<filter id="filter0_d_841_2330" x="439" y="114" width="322" height="444" filterUnits="userSpaceOnUse" color-interpolation-filters="sRGB">
<feFlood flood-opacity="0" result="BackgroundImageFix"/>
<feColorMatrix in="SourceAlpha" type="matrix" values="0 0 0 0 0 0 0 0 0 0 0 0 0 0 0 0 0 0 127 0" result="hardAlpha"/>
<feOffset dy="4"/>
<feGaussianBlur stdDeviation="2"/>
<feComposite in2="hardAlpha" operator="out"/>
<feColorMatrix type="matrix" values="0 0 0 0 0 0 0 0 0 0 0 0 0 0 0 0 0 0 0.25 0"/>
<feBlend mode="normal" in2="BackgroundImageFix" result="effect1_dropShadow_841_2330"/>
<feBlend mode="normal" in="SourceGraphic" in2="effect1_dropShadow_841_2330" result="shape"/>
</filter>
<clipPath id="clip0_841_2330">
<rect width="1200" height="1200" fill="white"/>
</clipPath>
</defs>
</svg>
