<svg width="613" height="156" viewBox="0 0 613 156" fill="none" xmlns="http://www.w3.org/2000/svg">
<path d="M137.109 151.045C137.109 129.317 137.109 107.33 137.109 85.085C137.109 62.8397 137.109 40.853 137.109 19.125C145.128 19.125 153.147 19.125 161.165 19.125C169.313 19.125 177.332 19.125 185.221 19.125C194.145 19.125 201.5 18.544 209 22.544C216 26.044 221.371 32.125 224 37.125C226.104 41.125 227.965 49.714 227 57.125C226 62.625 224.069 66.47 221.5 70.625C218.931 74.78 214 79.625 208 82.044C214.5 84.044 222.5 90.044 226.035 95.367C230 100.605 232 106.125 232.5 112.625C233 126.125 230 129.125 228.5 132.544C227 135.963 217.4 145.544 212 148.044C205.016 151.277 196.603 151.045 187.161 151.045C178.884 151.045 170.542 151.045 162.135 151.045C153.729 151.045 145.387 151.045 137.109 151.045ZM196.085 60.253C196.085 56.8903 195.051 54.1743 192.981 52.105C190.912 49.9063 188.196 48.807 184.833 48.807C182.505 48.807 180.113 48.807 177.655 48.807C175.327 48.807 172.999 48.807 170.671 48.807C170.671 52.4283 170.671 56.179 170.671 60.059C170.671 63.8097 170.671 67.5603 170.671 71.311C172.999 71.311 175.327 71.311 177.655 71.311C180.113 71.311 182.505 71.311 184.833 71.311C188.196 71.311 190.912 70.341 192.981 68.401C195.051 66.3317 196.085 63.6157 196.085 60.253ZM200.353 109.141C200.353 105.52 199.125 102.674 196.667 100.605C194.339 98.4063 191.106 97.307 186.967 97.307C184.251 97.307 181.535 97.307 178.819 97.307C176.103 97.307 173.387 97.307 170.671 97.307C170.671 101.316 170.671 105.326 170.671 109.335C170.671 113.344 170.671 117.354 170.671 121.363C173.387 121.363 176.103 121.363 178.819 121.363C181.535 121.363 184.251 121.363 186.967 121.363C191.106 121.363 194.339 120.264 196.667 118.065C199.125 115.866 200.353 112.892 200.353 109.141Z" fill="white"/>
<path d="M335.238 50.828C335.238 67.3827 335.238 84.1313 335.238 101.074C335.238 117.887 335.238 134.571 335.238 151.126C330.064 151.126 324.762 151.126 319.33 151.126C313.898 151.126 308.53 151.126 303.228 151.126C303.228 150.221 303.228 149.38 303.228 148.604C303.228 147.828 303.228 146.987 303.228 146.082C299.736 148.539 295.791 150.415 291.394 151.708C287.126 153.131 282.47 153.842 277.426 153.842C270.054 153.842 263.522 152.161 257.832 148.798C252.27 145.435 247.873 140.585 244.64 134.248C241.536 127.911 239.984 120.409 239.984 111.744C239.984 101.656 239.984 91.5033 239.984 81.286C239.984 71.0687 239.984 60.916 239.984 50.828C245.286 50.828 250.654 50.828 256.086 50.828C261.518 50.828 266.82 50.828 271.994 50.828C271.994 60.14 271.994 69.5813 271.994 79.152C271.994 88.7227 271.994 98.164 271.994 107.476C271.994 112.649 273.158 116.853 275.486 120.086C277.943 123.19 281.758 124.742 286.932 124.742C292.105 124.742 296.114 123.255 298.96 120.28C301.805 117.305 303.228 113.037 303.228 107.476C303.228 98.164 303.228 88.7227 303.228 79.152C303.228 69.5813 303.228 60.14 303.228 50.828C308.53 50.828 313.898 50.828 319.33 50.828C324.762 50.828 330.064 50.828 335.238 50.828Z" fill="white"/>
<path d="M363.906 39.382C360.155 39.382 356.728 38.4767 353.624 36.666C350.649 34.8553 348.256 32.4627 346.446 29.488C344.635 26.5133 343.73 23.2153 343.73 19.594C343.73 15.9727 344.635 12.7393 346.446 9.894C348.256 6.91933 350.649 4.52667 353.624 2.716C356.728 0.905333 360.155 0 363.906 0C367.527 0 370.825 0.905333 373.8 2.716C376.904 4.52667 379.361 6.91933 381.172 9.894C382.982 12.7393 383.888 15.9727 383.888 19.594C383.888 23.2153 382.982 26.5133 381.172 29.488C379.361 32.4627 376.904 34.8553 373.8 36.666C370.825 38.4767 367.527 39.382 363.906 39.382ZM347.804 151.126C347.804 134.571 347.804 117.887 347.804 101.074C347.804 84.1313 347.804 67.3827 347.804 50.828C353.106 50.828 358.474 50.828 363.906 50.828C369.338 50.828 374.641 50.828 379.814 50.828C379.814 67.3827 379.814 84.1313 379.814 101.074C379.814 117.887 379.814 134.571 379.814 151.126C374.641 151.126 369.338 151.126 363.906 151.126C358.474 151.126 353.106 151.126 347.804 151.126Z" fill="white"/>
<path d="M393.424 151.126C393.424 127.717 393.424 104.113 393.424 80.316C393.424 56.5187 393.424 32.9153 393.424 9.506C398.727 9.506 404.094 9.506 409.526 9.506C414.958 9.506 420.261 9.506 425.434 9.506C425.434 32.9153 425.434 56.5187 425.434 80.316C425.434 104.113 425.434 127.717 425.434 151.126C420.261 151.126 414.958 151.126 409.526 151.126C404.094 151.126 398.727 151.126 393.424 151.126Z" fill="white"/>
<path d="M448.55 151.126C448.55 139.227 448.55 127.264 448.55 115.236C448.55 103.208 448.55 91.3093 448.55 79.54C445.964 79.54 443.312 79.54 440.596 79.54C438.01 79.54 435.423 79.54 432.836 79.54C432.836 74.7547 432.836 69.9693 432.836 65.184C432.836 60.3987 432.836 55.6133 432.836 50.828C435.423 50.828 438.01 50.828 440.596 50.828C443.312 50.828 445.964 50.828 448.55 50.828C448.55 46.3013 448.55 41.8393 448.55 37.442C448.55 32.9153 448.55 28.4533 448.55 24.056C453.853 24.056 459.22 24.056 464.652 24.056C470.084 24.056 475.387 24.056 480.56 24.056C480.56 28.4533 480.56 32.9153 480.56 37.442C480.56 41.8393 480.56 46.3013 480.56 50.828C483.535 50.828 486.574 50.828 489.678 50.828C492.782 50.828 495.822 50.828 498.797 50.828C498.797 55.6133 498.797 60.3987 498.797 65.184C498.797 69.9693 498.797 74.7547 498.797 79.54C495.822 79.54 492.782 79.54 489.678 79.54C486.574 79.54 483.535 79.54 480.56 79.54C480.56 91.3093 480.56 103.208 480.56 115.236C480.56 127.264 480.56 139.227 480.56 151.126C475.387 151.126 470.084 151.126 464.652 151.126C459.22 151.126 453.853 151.126 448.55 151.126Z" fill="white"/>
<path d="M523.547 39.382C519.796 39.382 516.369 38.4767 513.265 36.666C510.29 34.8553 507.897 32.4627 506.087 29.488C504.276 26.5133 503.371 23.2153 503.371 19.594C503.371 15.9727 504.276 12.7393 506.087 9.894C507.897 6.91933 510.29 4.52667 513.265 2.716C516.369 0.905333 519.796 0 523.547 0C527.168 0 530.466 0.905333 533.441 2.716C536.545 4.52667 539.002 6.91933 540.813 9.894C542.623 12.7393 543.529 15.9727 543.529 19.594C543.529 23.2153 542.623 26.5133 540.813 29.488C539.002 32.4627 536.545 34.8553 533.441 36.666C530.466 38.4767 527.168 39.382 523.547 39.382ZM507.445 151.126C507.445 134.571 507.445 117.887 507.445 101.074C507.445 84.1313 507.445 67.3827 507.445 50.828C512.747 50.828 518.115 50.828 523.547 50.828C528.979 50.828 534.281 50.828 539.455 50.828C539.455 67.3827 539.455 84.1313 539.455 101.074C539.455 117.887 539.455 134.571 539.455 151.126C534.281 151.126 528.979 151.126 523.547 151.126C518.115 151.126 512.747 151.126 507.445 151.126Z" fill="white"/>
<path d="M562.571 151.126C562.571 139.227 562.571 127.264 562.571 115.236C562.571 103.208 562.571 91.3093 562.571 79.54C559.984 79.54 557.333 79.54 554.617 79.54C552.03 79.54 549.444 79.54 546.857 79.54C546.857 74.7547 546.857 69.9693 546.857 65.184C546.857 60.3987 546.857 55.6133 546.857 50.828C549.444 50.828 552.03 50.828 554.617 50.828C557.333 50.828 559.984 50.828 562.571 50.828C562.571 46.3013 562.571 41.8393 562.571 37.442C562.571 32.9153 562.571 28.4533 562.571 24.056C567.874 24.056 573.241 24.056 578.673 24.056C584.105 24.056 589.408 24.056 594.581 24.056C594.581 28.4533 594.581 32.9153 594.581 37.442C594.581 41.8393 594.581 46.3013 594.581 50.828C597.556 50.828 600.595 50.828 603.699 50.828C606.803 50.828 609.842 50.828 612.817 50.828C612.817 55.6133 612.817 60.3987 612.817 65.184C612.817 69.9693 612.817 74.7547 612.817 79.54C609.842 79.54 606.803 79.54 603.699 79.54C600.595 79.54 597.556 79.54 594.581 79.54C594.581 91.3093 594.581 103.208 594.581 115.236C594.581 127.264 594.581 139.227 594.581 151.126C589.408 151.126 584.105 151.126 578.673 151.126C573.241 151.126 567.874 151.126 562.571 151.126Z" fill="white"/>
<path d="M59.79 16C79.0977 16.0001 94.75 31.6522 94.75 50.96C94.7499 65.0896 86.366 77.2591 74.3027 82.7715C89.4551 87.5831 100.434 101.763 100.435 118.509C100.435 139.214 83.6497 156 62.9443 156H0V16H59.79Z" fill="white"/>
</svg>
